<svg id="Layer_1" data-name="Layer 1" xmlns="http://www.w3.org/2000/svg" viewBox="0 0 48 48">
  <defs>
    <style>
      .cls-1, .cls-2, .cls-3, .cls-4, .cls-5, .cls-6 {
        fill: none;
      }

      .cls-1, .cls-7 {
        stroke-width: 0px;
      }

      .cls-2, .cls-3, .cls-4, .cls-5, .cls-6 {
        stroke: #f7a425;
        stroke-miterlimit: 10;
        stroke-width: 1.25px;
      }

      .cls-3 {
        stroke-dasharray: 0 0 2.37 1.19;
      }

      .cls-4 {
        stroke-dasharray: 0 0 3.81 1.91;
      }

      .cls-5 {
        stroke-dasharray: 0 0 3.54 1.77;
      }

      .cls-7 {
        fill: #f7a425;
      }

      .cls-6 {
        stroke-dasharray: 0 0 2.7 1.35;
      }
    </style>
  </defs>
  <g>
    <polyline class="cls-2" points="27.58 17.44 26.99 16.06 25.49 16.06"/>
    <line class="cls-3" x1="24.3" y1="16.06" x2="17.78" y2="16.06"/>
    <polyline class="cls-2" points="17.19 16.06 15.69 16.06 15.69 17.56"/>
    <line class="cls-5" x1="15.69" y1="19.34" x2="15.69" y2="29.07"/>
    <polyline class="cls-2" points="15.69 29.96 15.69 31.46 17.1 30.94"/>
    <line class="cls-6" x1="18.37" y1="30.48" x2="29.14" y2="26.57"/>
    <polyline class="cls-2" points="29.77 26.34 31.18 25.83 30.59 24.45"/>
    <line class="cls-4" x1="29.84" y1="22.7" x2="27.96" y2="18.32"/>
  </g>
  <polygon class="cls-7" points="17.69 18.06 25.67 18.06 28.51 24.67 17.69 28.6 17.69 18.06"/>
  <g>
    <polyline class="cls-2" points="15.69 41.46 15.69 35.46 33.15 29.11 37.48 39.47"/>
    <polyline class="cls-2" points="42.02 25.88 36.88 27.75 40.95 37.63"/>
    <polyline class="cls-2" points="11.93 5.93 11.93 21.88 3.95 21.88"/>
    <polyline class="cls-2" points="3.95 25.88 11.93 25.88 11.93 41.46"/>
    <polyline class="cls-2" points="41.3 22.15 35.27 24.34 29.88 12.06 15.69 12.06 15.69 5.93"/>
  </g>
  <rect class="cls-1" width="48" height="48"/>
</svg>