<svg id="Layer_1" data-name="Layer 1" xmlns="http://www.w3.org/2000/svg" viewBox="0 0 48 48">
  <defs>
    <style>
      .cls-1 {
        stroke-width: 1.5px;
      }

      .cls-1, .cls-2, .cls-3 {
        fill: none;
      }

      .cls-1, .cls-3 {
        stroke: #7c287d;
        stroke-miterlimit: 10;
      }

      .cls-2, .cls-4 {
        stroke-width: 0px;
      }

      .cls-3 {
        stroke-width: 1.39px;
      }

      .cls-4 {
        fill: #7c287d;
      }
    </style>
  </defs>
  <polyline class="cls-1" points="26.9 19.83 26.9 15.87 30.9 11.87"/>
  <polyline class="cls-1" points="30.84 28.33 38.84 28.33 38.84 22.33"/>
  <line class="cls-1" x1="30.84" y1="34.61" x2="38.84" y2="34.61"/>
  <line class="cls-1" x1="19.66" y1="19.83" x2="19.66" y2="9.91"/>
  <g>
    <polyline class="cls-1" points="13.46 19.83 30.84 19.83 30.84 38.3 10.48 38.3"/>
    <path class="cls-3" d="m10.48,38.3c-1.65,0-2.98-1.33-2.98-2.98s1.33-2.98,2.98-2.98,2.98,1.33,2.98,2.98"/>
    <path class="cls-1" d="m7.5,16.85c0-1.65,1.33-2.98,2.98-2.98s2.98,1.33,2.98,2.98"/>
    <line class="cls-1" x1="13.46" y1="16.85" x2="13.46" y2="35.32"/>
    <line class="cls-1" x1="7.5" y1="16.85" x2="7.5" y2="35.32"/>
  </g>
  <circle class="cls-4" cx="30.84" cy="11.87" r="2.5"/>
  <circle class="cls-4" cx="38.84" cy="22.33" r="2.5"/>
  <circle class="cls-4" cx="19.66" cy="9.91" r="2.5"/>
  <circle class="cls-4" cx="38.84" cy="34.61" r="2.5"/>
  <g>
    <line class="cls-1" x1="16.98" y1="23.97" x2="22.55" y2="23.97"/>
    <line class="cls-1" x1="16.98" y1="28.31" x2="27.38" y2="28.31"/>
    <line class="cls-1" x1="16.98" y1="31.46" x2="27.38" y2="31.46"/>
    <line class="cls-1" x1="16.98" y1="34.61" x2="27.38" y2="34.61"/>
  </g>
  <rect class="cls-2" width="48" height="48"/>
</svg>